<svg id="visual" viewBox="0 0 675 900" width="675" height="900" xmlns="http://www.w3.org/2000/svg">

<path d="M0 55L56.3 53.5C112.7 52 225.3 49 337.8 52C450.3 55 562.7 64 618.8 68.5L675 73L675 0L618.8 0C562.7 0 450.3 0 337.8 0C225.3 0 112.7 0 56.3 0L0 0Z" fill="#F2FBF8"></path>

<path d="M0 307L56.3 299.5C112.7 292 225.3 277 337.8 278.5C450.3 280 562.7 298 618.8 307L675 316L675 71L618.8 66.5C562.7 62 450.3 53 337.8 50C225.3 47 112.7 50 56.3 51.5L0 53Z" fill="#EDF9F5"></path>

<path d="M0 478L56.3 458.5C112.7 439 225.3 400 337.8 401.5C450.3 403 562.7 445 618.8 466L675 487L675 314L618.8 305C562.7 296 450.3 278 337.8 276.5C225.3 275 112.7 290 56.3 297.5L0 305Z" fill="#E8F7F2"></path>

<path d="M0 613L56.3 607C112.7 601 225.3 589 337.8 590.5C450.3 592 562.7 607 618.8 614.5L675 622L675 485L618.8 464C562.7 443 450.3 401 337.8 399.5C225.3 398 112.7 437 56.3 456.5L0 476Z" fill="#E3F5EF"></path>

<path d="M0 712L56.3 713.5C112.7 715 225.3 718 337.8 727C450.3 736 562.7 751 618.8 758.5L675 766L675 620L618.8 612.5C562.7 605 450.3 590 337.8 588.5C225.3 587 112.7 599 56.3 605L0 611Z" fill="#DEF3EC"></path>

<path d="M0 838L56.3 839.5C112.7 841 225.3 844 337.8 845.5C450.3 847 562.7 847 618.8 847L675 847L675 764L618.8 756.5C562.7 749 450.3 734 337.8 725C225.3 716 112.7 713 56.3 711.5L0 710Z" fill="#D9F1E9"></path>

<path d="M0 901L56.3 901C112.7 901 225.3 901 337.8 901C450.3 901 562.7 901 618.8 901L675 901L675 845L618.8 845C562.7 845 450.3 845 337.8 843.5C225.3 842 112.7 839 56.3 837.5L0 836Z" fill="#D4EFE6"></path>

</svg>